<svg width="368" height="104" viewBox="0 0 368 104" fill="none" xmlns="http://www.w3.org/2000/svg">
<rect x="48.5283" y="106.143" width="333.353" height="52" transform="rotate(-15.8674 48.5283 106.143)" fill="white"/>
<g filter="url(#filter0_i_107_4)">
<path d="M330.56 40.0871L331.601 42.9588L331.685 42.9348C332.241 40.2998 333.643 38.7526 335.807 38.1373C338.553 37.3569 340.344 38.0863 341.921 40.0254L342.002 40.0022C342.949 36.8413 344.752 35.5949 346.501 35.0978C351.689 33.6231 353.738 36.9885 354.811 40.7644L358.493 53.7164L351.836 55.6084L348.602 44.2292C348.083 42.4043 347.657 40.5964 345.745 41.1398C343.747 41.708 343.874 43.415 344.405 45.2829L347.676 56.791L341.017 58.6838L337.782 47.3047C337.263 45.4798 336.84 43.671 334.926 44.2152C332.93 44.7826 333.054 46.4905 333.585 48.3584L336.856 59.8665L330.284 61.7345L326.88 49.7595C325.227 50.2757 323.161 49.8071 322.522 47.2363C320.613 47.6425 318.989 46.6798 318.29 44.2189L318.121 43.623L330.56 40.0871Z" fill="#F50F64"/>
<path d="M367.123 51.6285C363.962 52.5271 360.475 51.97 359.217 47.5439C356.961 39.6054 369.698 40.1154 368.491 35.8697C368.213 34.8928 367.46 34.4629 365.964 34.8882C364.467 35.3136 363.721 36.4886 363.918 38.4514L357.692 39.1683C357.385 34.1714 360.353 31.1605 364.805 29.8949C369.937 28.4362 373.789 29.1775 375.406 34.8671L377.035 40.5968C377.217 41.2356 378.778 46.2504 379.349 47.7881L373.386 49.483L372.508 47.3453L372.424 47.3692C371.528 49.553 369.611 50.9215 367.115 51.6309L367.123 51.6285ZM365.841 44.9274C366.179 46.1163 367.202 46.5129 368.355 46.1849C370.228 45.6526 370.917 44.1255 370.371 42.2061L369.915 40.6017C368.567 42.499 365.177 42.5925 365.841 44.9274Z" fill="#F50F64"/>
<path d="M391.927 47.012C394.049 46.4087 394.877 45.2106 394.153 42.6637L393.502 40.3718L393.42 40.395C392.819 42.08 391.164 43.699 389.003 44.3135C383.885 45.7682 380.287 42.2918 378.682 36.6452C377.101 31.0817 378.618 25.9688 383.694 24.5261C385.94 23.8877 388.168 24.7683 389.476 25.7281L389.557 25.7049L389.056 23.4602L395.381 21.6624L400.208 38.6452C402.333 46.1195 399.775 50.1037 393.245 51.9598C389.666 52.9773 385.85 52.6839 382.973 48.913L388.181 45.8846C389.16 47.1204 390.257 47.4991 391.922 47.0259L391.927 47.012ZM391.628 33.0213C390.732 29.8699 389.291 28.5919 387.253 29.1712C385.174 29.7623 384.58 31.6289 385.471 34.7713C386.4 38.04 387.888 39.3139 389.968 38.7226C392.006 38.1433 392.557 36.2901 391.628 33.0213Z" fill="#F50F64"/>
<path d="M411.111 16.7329C415.729 15.4202 417.835 18.6765 419.02 22.8449L422.614 35.4903L415.947 37.3855L412.724 26.0493C412.205 24.2216 411.602 22.4206 409.356 23.059C407.234 23.6623 407.295 25.6173 407.826 27.488L411.036 38.7812L404.38 40.6733L398.708 20.7167L405.03 18.9197L405.995 21.6736L406.076 21.6505C407.072 18.9833 408.654 17.4312 411.111 16.7329Z" fill="#F50F64"/>
<path d="M431.668 33.3751C427.131 34.6647 425.039 31.4044 423.854 27.236L420.26 14.5906L426.917 12.6986L430.139 24.0348C430.657 25.8597 431.261 27.6635 433.423 27.049C435.464 26.4689 435.402 24.5111 434.871 22.6432L431.661 11.35L438.317 9.45793L443.99 29.4144L437.662 31.2131L436.697 28.4592L436.613 28.4831C435.659 31.1383 434.077 32.6905 431.665 33.3759" fill="#F50F64"/>
<path d="M447.632 6.8102L448.673 9.68189L448.757 9.65795C449.31 7.02374 450.791 5.45416 452.961 4.83731C455.749 4.04491 457.532 4.77669 459.117 6.71338L459.198 6.69024C460.145 3.52929 461.99 2.27098 463.739 1.77384C468.98 0.283993 471.018 3.65259 472.091 7.42846L475.773 20.3804L469.116 22.2725L465.882 10.8933C465.363 9.06838 464.937 7.26044 462.983 7.81584C460.945 8.39518 461.07 10.103 461.6 11.9709L464.872 23.479L458.215 25.371L454.981 13.9919C454.462 12.167 454.036 10.359 452.082 10.9144C450.044 11.4938 450.168 13.2016 450.699 15.0695L453.97 26.5776L447.32 28.468L441.647 8.51152L447.632 6.8102Z" fill="#F50F64"/>
</g>
<g filter="url(#filter1_i_107_4)">
<path d="M172.56 85.0871L173.601 87.9588L173.685 87.9348C174.241 85.2998 175.643 83.7526 177.807 83.1373C180.553 82.3569 182.344 83.0863 183.921 85.0254L184.002 85.0022C184.949 81.8413 186.752 80.5949 188.501 80.0978C193.689 78.6231 195.738 81.9885 196.811 85.7644L200.493 98.7164L193.836 100.608L190.602 89.2292C190.083 87.4043 189.657 85.5964 187.745 86.1398C185.747 86.708 185.874 88.415 186.405 90.2829L189.676 101.791L183.017 103.684L179.782 92.3047C179.263 90.4798 178.84 88.671 176.926 89.2152C174.93 89.7826 175.054 91.4905 175.585 93.3584L178.856 104.866L172.284 106.735L168.88 94.7595C167.227 95.2757 165.161 94.8071 164.522 92.2363C162.613 92.6425 160.989 91.6798 160.29 89.2189L160.121 88.623L172.56 85.0871Z" fill="#F50F64"/>
<path d="M209.123 96.6285C205.962 97.5271 202.475 96.97 201.217 92.5439C198.961 84.6054 211.698 85.1154 210.491 80.8697C210.213 79.8928 209.46 79.4629 207.964 79.8882C206.467 80.3136 205.721 81.4886 205.918 83.4514L199.692 84.1683C199.385 79.1714 202.353 76.1605 206.805 74.8949C211.937 73.4362 215.789 74.1775 217.406 79.8671L219.035 85.5968C219.217 86.2356 220.778 91.2504 221.349 92.7881L215.386 94.483L214.508 92.3453L214.424 92.3692C213.528 94.553 211.611 95.9215 209.115 96.6309L209.123 96.6285ZM207.841 89.9274C208.179 91.1163 209.202 91.5129 210.355 91.1849C212.228 90.6526 212.917 89.1255 212.371 87.2061L211.915 85.6017C210.567 87.499 207.177 87.5925 207.841 89.9274Z" fill="#F50F64"/>
<path d="M233.927 92.012C236.049 91.4087 236.877 90.2106 236.153 87.6637L235.502 85.3718L235.42 85.395C234.819 87.08 233.164 88.699 231.003 89.3135C225.885 90.7682 222.287 87.2918 220.682 81.6452C219.101 76.0817 220.618 70.9688 225.694 69.5261C227.94 68.8877 230.168 69.7683 231.476 70.7281L231.557 70.7049L231.056 68.4602L237.381 66.6624L242.208 83.6452C244.333 91.1195 241.775 95.1037 235.245 96.9598C231.666 97.9773 227.85 97.6839 224.973 93.913L230.181 90.8846C231.16 92.1204 232.257 92.4991 233.922 92.0259L233.927 92.012ZM233.628 78.0213C232.732 74.8699 231.291 73.5919 229.253 74.1712C227.174 74.7623 226.58 76.6289 227.471 79.7713C228.4 83.04 229.888 84.3139 231.968 83.7226C234.006 83.1433 234.557 81.2901 233.628 78.0213Z" fill="#F50F64"/>
<path d="M253.111 61.7329C257.729 60.4202 259.835 63.6765 261.02 67.8449L264.614 80.4903L257.947 82.3855L254.724 71.0493C254.205 69.2216 253.602 67.4206 251.356 68.059C249.234 68.6623 249.295 70.6173 249.826 72.488L253.036 83.7812L246.38 85.6733L240.708 65.7167L247.03 63.9197L247.995 66.6736L248.076 66.6505C249.072 63.9833 250.654 62.4312 253.111 61.7329Z" fill="#F50F64"/>
<path d="M273.668 78.3751C269.131 79.6647 267.039 76.4044 265.854 72.236L262.26 59.5906L268.917 57.6986L272.139 69.0348C272.657 70.8597 273.261 72.6635 275.423 72.049C277.464 71.4689 277.402 69.5111 276.871 67.6432L273.661 56.35L280.317 54.4579L285.99 74.4144L279.662 76.2131L278.697 73.4592L278.613 73.4831C277.659 76.1383 276.077 77.6905 273.665 78.3759" fill="#F50F64"/>
<path d="M289.632 51.8102L290.673 54.6819L290.757 54.658C291.31 52.0237 292.791 50.4542 294.961 49.8373C297.749 49.0449 299.532 49.7767 301.117 51.7134L301.198 51.6902C302.145 48.5293 303.99 47.271 305.739 46.7738C310.98 45.284 313.018 48.6526 314.091 52.4285L317.773 65.3804L311.116 67.2725L307.882 55.8933C307.363 54.0684 306.937 52.2604 304.983 52.8158C302.945 53.3952 303.07 55.103 303.6 56.9709L306.872 68.479L300.215 70.371L296.981 58.9919C296.462 57.167 296.036 55.359 294.082 55.9144C292.044 56.4938 292.168 58.2016 292.699 60.0695L295.97 71.5776L289.32 73.468L283.647 53.5115L289.632 51.8102Z" fill="#F50F64"/>
</g>
<g filter="url(#filter2_i_107_4)">
<path d="M12.5602 131.087L13.601 133.959L13.6852 133.935C14.241 131.3 15.643 129.753 17.8075 129.137C20.5531 128.357 22.3443 129.086 23.9211 131.025L24.0025 131.002C24.9488 127.841 26.7519 126.595 28.5009 126.098C33.6891 124.623 35.738 127.989 36.8112 131.764L40.4927 144.716L33.8363 146.608L30.6019 135.229C30.0832 133.404 29.6573 131.596 27.7454 132.14C25.7465 132.708 25.8737 134.415 26.4047 136.283L29.6757 147.791L23.0165 149.684L19.7821 138.305C19.2634 136.48 18.8403 134.671 16.9256 135.215C14.9295 135.783 15.0539 137.49 15.5849 139.358L18.8559 150.866L12.2838 152.735L8.87995 140.759C7.22736 141.276 5.16135 140.807 4.52165 138.236C2.61327 138.642 0.989387 137.68 0.289895 135.219L0.120518 134.623L12.5602 131.087Z" fill="#F50F64"/>
<path d="M49.1234 142.629C45.9622 143.527 42.4753 142.97 41.2172 138.544C38.9608 130.605 51.6979 131.115 50.491 126.87C50.2134 125.893 49.46 125.463 47.9637 125.888C46.4673 126.314 45.7211 127.489 45.918 129.451L39.6922 130.168C39.3854 125.171 42.3528 122.161 46.8053 120.895C51.9373 119.436 55.7891 120.177 57.4063 125.867L59.0349 131.597C59.2165 132.236 60.7785 137.25 61.3491 138.788L55.3861 140.483L54.5084 138.345L54.4242 138.369C53.5278 140.553 51.6108 141.922 49.115 142.631L49.1234 142.629ZM47.8406 135.927C48.1786 137.116 49.2016 137.513 50.3554 137.185C52.228 136.653 52.9166 135.126 52.371 133.206L51.915 131.602C50.567 133.499 47.177 133.593 47.8406 135.927Z" fill="#F50F64"/>
<path d="M73.9269 138.012C76.0493 137.409 76.8769 136.211 76.153 133.664L75.5016 131.372L75.4201 131.395C74.8189 133.08 73.1642 134.699 71.0025 135.313C65.8846 136.768 62.287 133.292 60.682 127.645C59.1006 122.082 60.6178 116.969 65.6937 115.526C67.9396 114.888 70.1682 115.768 71.4757 116.728L71.5571 116.705L71.0556 114.46L77.3808 112.662L82.208 129.645C84.3325 137.12 81.7753 141.104 75.2453 142.96C71.6658 143.977 67.8503 143.684 64.9731 139.913L70.1808 136.885C71.1601 138.12 72.2569 138.499 73.9217 138.026L73.9269 138.012ZM73.6276 124.021C72.7319 120.87 71.2915 119.592 69.2533 120.171C67.1739 120.762 66.5798 122.629 67.471 125.771C68.4001 129.04 69.8879 130.314 71.9682 129.723C74.0064 129.143 74.5568 127.29 73.6276 124.021Z" fill="#F50F64"/>
<path d="M93.1109 107.733C97.7291 106.42 99.835 109.677 101.02 113.845L104.614 126.49L97.9466 128.386L94.7244 117.049C94.2049 115.222 93.6019 113.421 91.356 114.059C89.2336 114.662 89.2947 116.617 89.8264 118.488L93.0364 129.781L86.38 131.673L80.7075 111.717L87.0299 109.92L87.9947 112.674L88.0761 112.65C89.0718 109.983 90.6544 108.431 93.1109 107.733Z" fill="#F50F64"/>
<path d="M113.668 124.375C109.131 125.665 107.039 122.404 105.854 118.236L102.26 105.591L108.917 103.699L112.139 115.035C112.657 116.86 113.261 118.663 115.423 118.049C117.464 117.469 117.402 115.511 116.871 113.643L113.661 102.35L120.317 100.458L125.99 120.414L119.662 122.213L118.697 119.459L118.613 119.483C117.659 122.138 116.077 123.69 113.665 124.376" fill="#F50F64"/>
<path d="M129.632 97.8102L130.673 100.682L130.757 100.658C131.31 98.0237 132.791 96.4542 134.961 95.8373C137.749 95.0449 139.532 95.7767 141.117 97.7134L141.198 97.6902C142.145 94.5293 143.99 93.271 145.739 92.7738C150.98 91.284 153.018 94.6526 154.091 98.4285L157.773 111.38L151.116 113.272L147.882 101.893C147.363 100.068 146.937 98.2604 144.983 98.8158C142.945 99.3952 143.07 101.103 143.6 102.971L146.872 114.479L140.215 116.371L136.981 104.992C136.462 103.167 136.036 101.359 134.082 101.914C132.044 102.494 132.168 104.202 132.699 106.07L135.97 117.578L129.32 119.468L123.647 99.5115L129.632 97.8102Z" fill="#F50F64"/>
</g>
<defs>
<filter id="filter0_i_107_4" x="318.121" y="1.41321" width="157.652" height="64.3213" filterUnits="userSpaceOnUse" color-interpolation-filters="sRGB">
<feFlood flood-opacity="0" result="BackgroundImageFix"/>
<feBlend mode="normal" in="SourceGraphic" in2="BackgroundImageFix" result="shape"/>
<feColorMatrix in="SourceAlpha" type="matrix" values="0 0 0 0 0 0 0 0 0 0 0 0 0 0 0 0 0 0 127 0" result="hardAlpha"/>
<feOffset dy="4"/>
<feGaussianBlur stdDeviation="2"/>
<feComposite in2="hardAlpha" operator="arithmetic" k2="-1" k3="1"/>
<feColorMatrix type="matrix" values="0 0 0 0 0 0 0 0 0 0 0 0 0 0 0 0 0 0 0.25 0"/>
<feBlend mode="normal" in2="shape" result="effect1_innerShadow_107_4"/>
</filter>
<filter id="filter1_i_107_4" x="160.121" y="46.4132" width="157.652" height="64.3214" filterUnits="userSpaceOnUse" color-interpolation-filters="sRGB">
<feFlood flood-opacity="0" result="BackgroundImageFix"/>
<feBlend mode="normal" in="SourceGraphic" in2="BackgroundImageFix" result="shape"/>
<feColorMatrix in="SourceAlpha" type="matrix" values="0 0 0 0 0 0 0 0 0 0 0 0 0 0 0 0 0 0 127 0" result="hardAlpha"/>
<feOffset dy="4"/>
<feGaussianBlur stdDeviation="2"/>
<feComposite in2="hardAlpha" operator="arithmetic" k2="-1" k3="1"/>
<feColorMatrix type="matrix" values="0 0 0 0 0 0 0 0 0 0 0 0 0 0 0 0 0 0 0.25 0"/>
<feBlend mode="normal" in2="shape" result="effect1_innerShadow_107_4"/>
</filter>
<filter id="filter2_i_107_4" x="0.120605" y="92.4131" width="157.652" height="64.3215" filterUnits="userSpaceOnUse" color-interpolation-filters="sRGB">
<feFlood flood-opacity="0" result="BackgroundImageFix"/>
<feBlend mode="normal" in="SourceGraphic" in2="BackgroundImageFix" result="shape"/>
<feColorMatrix in="SourceAlpha" type="matrix" values="0 0 0 0 0 0 0 0 0 0 0 0 0 0 0 0 0 0 127 0" result="hardAlpha"/>
<feOffset dy="4"/>
<feGaussianBlur stdDeviation="2"/>
<feComposite in2="hardAlpha" operator="arithmetic" k2="-1" k3="1"/>
<feColorMatrix type="matrix" values="0 0 0 0 0 0 0 0 0 0 0 0 0 0 0 0 0 0 0.25 0"/>
<feBlend mode="normal" in2="shape" result="effect1_innerShadow_107_4"/>
</filter>
</defs>
</svg>
