<svg width="32" height="31" viewBox="0 0 32 31" fill="none" xmlns="http://www.w3.org/2000/svg">
<path d="M16.2213 18.1033C14.7769 18.1033 13.525 16.9478 13.525 15.4071C13.525 13.9626 14.6806 12.7108 16.2213 12.7108C17.6657 12.7108 18.9175 13.8664 18.9175 15.4071C18.9175 16.8515 17.6657 18.1033 16.2213 18.1033Z" fill="#F50F64"/>
<path fill-rule="evenodd" clip-rule="evenodd" d="M19.4953 8.85906H12.9473C12.1769 8.95535 11.7917 9.05164 11.5029 9.14794C11.1177 9.24423 10.8288 9.43682 10.5399 9.7257C10.3113 9.95429 10.2033 10.1829 10.0728 10.4592C10.0384 10.532 10.0023 10.6083 9.96215 10.6886C9.94725 10.7333 9.93005 10.7803 9.91162 10.8307C9.81088 11.1059 9.67327 11.4819 9.67327 12.1331V18.6811C9.76956 19.4514 9.86586 19.8366 9.96215 20.1255C10.0584 20.5106 10.251 20.7995 10.5399 21.0884C10.7685 21.317 10.9971 21.425 11.2734 21.5555C11.3463 21.59 11.4225 21.626 11.5029 21.6662C11.5475 21.6811 11.5945 21.6983 11.6449 21.7167C11.9201 21.8174 12.2961 21.9551 12.9473 21.9551H19.4953C20.2656 21.8588 20.6508 21.7625 20.9397 21.6662C21.3249 21.5699 21.6137 21.3773 21.9026 21.0884C22.1312 20.8598 22.2392 20.6312 22.3698 20.3549C22.4042 20.2821 22.4402 20.2058 22.4804 20.1255C22.4953 20.0808 22.5125 20.0338 22.5309 19.9834C22.6317 19.7082 22.7693 19.3322 22.7693 18.6811V12.1331C22.673 11.3627 22.5767 10.9775 22.4804 10.6886C22.3841 10.3035 22.1915 10.0146 21.9026 9.7257C21.674 9.49711 21.4454 9.38911 21.1691 9.25857C21.0964 9.22419 21.0199 9.18806 20.9397 9.14794C20.895 9.13304 20.848 9.11584 20.7976 9.09741C20.5224 8.99667 20.1464 8.85906 19.4953 8.85906ZM16.2213 11.2664C13.9102 11.2664 12.0806 13.096 12.0806 15.4071C12.0806 17.7181 13.9102 19.5477 16.2213 19.5477C18.5323 19.5477 20.3619 17.7181 20.3619 15.4071C20.3619 13.096 18.5323 11.2664 16.2213 11.2664ZM21.4212 11.1701C21.4212 11.7019 20.99 12.1331 20.4582 12.1331C19.9264 12.1331 19.4953 11.7019 19.4953 11.1701C19.4953 10.6383 19.9264 10.2072 20.4582 10.2072C20.99 10.2072 21.4212 10.6383 21.4212 11.1701Z" fill="#F50F64"/>
<path fill-rule="evenodd" clip-rule="evenodd" d="M0.814209 15.4071C0.814209 6.89798 7.71218 0 16.2213 0C24.7304 0 31.6283 6.89798 31.6283 15.4071C31.6283 23.9161 24.7304 30.8141 16.2213 30.8141C7.71218 30.8141 0.814209 23.9161 0.814209 15.4071ZM12.9473 7.41464H19.4953C20.3619 7.51094 20.9397 7.60723 21.4212 7.79982C21.9989 8.0887 22.3841 8.28129 22.8656 8.76276C23.347 9.24423 23.6359 9.7257 23.8285 10.2072C24.0211 10.6886 24.2137 11.2664 24.2137 12.1331V18.6811C24.1174 19.5477 24.0211 20.1255 23.8285 20.6069C23.5396 21.1847 23.347 21.5699 22.8656 22.0513C22.3841 22.5328 21.9026 22.8217 21.4212 23.0143C20.9397 23.2069 20.3619 23.3995 19.4953 23.3995H12.9473C12.0806 23.3032 11.5029 23.2069 11.0214 23.0143C10.4436 22.7254 10.0584 22.5328 9.57697 22.0513C9.0955 21.5699 8.80662 21.0884 8.61403 20.6069C8.42144 20.1255 8.22886 19.5477 8.22886 18.6811V12.1331C8.32515 11.2664 8.42144 10.6886 8.61403 10.2072C8.90292 9.62941 9.0955 9.24423 9.57697 8.76276C10.0584 8.28129 10.5399 7.99241 11.0214 7.79982C11.5029 7.60723 12.0806 7.41464 12.9473 7.41464Z" fill="#F50F64"/>
</svg>
