<svg width="223" height="66" viewBox="0 0 223 66" fill="none" xmlns="http://www.w3.org/2000/svg">
<path d="M18.0891 0.60799L18.3912 4.81052H18.5136C20.2691 1.52408 22.7471 0 25.8946 0C29.8872 0 32.0182 1.64322 33.398 4.81052H33.5164C35.9985 0.973606 38.9011 0 41.4444 0C48.9886 0 50.4583 5.23775 50.4583 10.6522V29.2246H40.779V12.9075C40.779 10.2906 40.8974 7.73133 38.1172 7.73133C35.2106 7.73133 34.7289 10.0442 34.7289 12.7226V29.2246H25.0454V12.9075C25.0454 10.2906 25.1679 7.73133 22.3837 7.73133C19.4812 7.73133 18.9953 10.0442 18.9953 12.7226V29.2246H9.43848V12.053C7.01762 12.1146 4.41714 10.7138 4.53961 7.06172C1.81666 6.88097 0 4.99127 0 1.46246V0.60799H18.0891Z" fill="#F50F64"/>
<path d="M62.8688 29.7094C58.272 29.7094 53.7936 27.6553 53.7936 21.3084C53.7936 9.92503 70.7355 15.4052 70.7355 9.31704C70.7355 7.9162 69.8864 7.06172 67.7105 7.06172C65.5346 7.06172 64.0812 8.33932 63.5954 11.0178L54.9448 9.62103C56.4431 2.87563 61.5869 0 68.0616 0C75.5242 0 80.423 2.43607 80.423 10.5946V18.8107C80.423 19.7268 80.6067 26.9693 80.7864 29.2246H72.1154L71.752 26.0573H71.6296C69.5884 28.6166 66.4858 29.7094 62.8565 29.7094H62.8688ZM63.7056 20.3348C63.7056 22.0396 64.9304 22.9516 66.6082 22.9516C69.3312 22.9516 70.8417 21.1852 70.8417 18.4328V16.1323C68.3024 18.1411 63.7056 16.9868 63.7056 20.3348Z" fill="#F50F64"/>
<path d="M98.0059 32.9383C101.092 32.9383 102.664 31.6607 102.664 28.0086V24.7222H102.545C101.092 26.731 98.2467 28.2551 95.1033 28.2551C87.6611 28.2551 84.1502 22.2861 84.1502 14.1892C84.1502 6.21136 88.1469 0 95.5278 0C98.7938 0 101.455 2.00883 102.848 3.77529H102.966L103.15 0.60799H112.347V24.9605C112.347 35.6783 107.383 40 97.8875 40C92.6824 40 87.6611 38.1719 85.2321 32.0838L93.3968 30.0298C94.2419 32.0386 95.5728 32.9547 97.9936 32.9547L98.0059 32.9383ZM102.954 14.2631C102.954 9.74427 101.504 7.50539 98.5407 7.50539C95.517 7.50539 94.0038 9.75797 94.001 14.2631C94.001 18.9504 95.5156 21.2016 98.5407 21.2016C101.504 21.2016 102.954 18.9504 102.954 14.2631Z" fill="#F50F64"/>
<path d="M135.396 0C142.112 0 143.7 5.11451 143.7 11.0917V29.2246H134.004V12.9691C134.004 10.3482 133.882 7.73133 130.616 7.73133C127.53 7.73133 126.864 10.3482 126.864 13.0307V29.2246H117.185V0.60799H126.378L126.623 4.62565H126.742C129.101 1.46246 131.824 0 135.396 0Z" fill="#F50F64"/>
<path d="M156.69 29.8326C150.093 29.8326 148.525 24.7181 148.525 18.7409V0.60799H158.205V16.8635C158.205 19.4803 158.327 22.1013 161.471 22.1013C164.439 22.1013 165.104 19.4803 165.104 16.8019V0.60799H174.783V29.2246H165.582L165.337 25.2069H165.214C162.916 28.3701 160.193 29.8326 156.686 29.8326" fill="#F50F64"/>
<path d="M188.329 0.60799L188.631 4.81052H188.753C190.505 1.52408 193.097 0 196.253 0C200.306 0 202.425 1.64322 203.817 4.81052H203.936C206.418 0.973606 209.382 0 211.925 0C219.547 0 221 5.23775 221 10.6522V29.2246H211.321V12.9075C211.321 10.2906 211.439 7.73133 208.598 7.73133C205.634 7.73133 205.148 10.0442 205.148 12.7226V29.2246H195.469V12.9075C195.469 10.2906 195.587 7.73133 192.746 7.73133C189.782 7.73133 189.296 10.0442 189.296 12.7226V29.2246H179.625V0.60799H188.329Z" fill="#F50F64"/>
<path d="M9.386 45.14H12.998V50.201H18.059V45.14H21.671V59H18.059V53.456H12.998V59H9.386V45.14ZM32.4607 57.845H27.4837L26.9797 59H23.0947L29.3947 44.888H30.5497L36.8497 59H32.9647L32.4607 57.845ZM29.9827 51.734L28.7647 54.947H31.1797L29.9827 51.734ZM38.2815 45.14H50.3565V59H46.7445V48.395H41.8935V59H38.2815V45.14ZM59.8702 59.252C58.5122 59.252 57.2592 58.937 56.1112 58.307C54.9772 57.677 54.0742 56.816 53.4022 55.724C52.7442 54.632 52.4152 53.414 52.4152 52.07C52.4152 50.74 52.7442 49.529 53.4022 48.437C54.0742 47.331 54.9772 46.463 56.1112 45.833C57.2592 45.203 58.5122 44.888 59.8702 44.888C61.2282 44.888 62.4812 45.203 63.6292 45.833C64.7772 46.463 65.6872 47.331 66.3592 48.437C67.0312 49.529 67.3672 50.74 67.3672 52.07C67.3672 53.414 67.0312 54.632 66.3592 55.724C65.6872 56.816 64.7772 57.677 63.6292 58.307C62.4812 58.937 61.2282 59.252 59.8702 59.252ZM59.8912 55.934C60.6052 55.934 61.2492 55.773 61.8232 55.451C62.3972 55.129 62.8452 54.681 63.1672 54.107C63.5032 53.519 63.6712 52.84 63.6712 52.07C63.6712 51.314 63.5032 50.642 63.1672 50.054C62.8452 49.466 62.3972 49.011 61.8232 48.689C61.2492 48.367 60.6052 48.206 59.8912 48.206C59.1492 48.206 58.4912 48.367 57.9172 48.689C57.3572 49.011 56.9162 49.466 56.5942 50.054C56.2722 50.642 56.1112 51.314 56.1112 52.07C56.1112 53.232 56.4612 54.17 57.1612 54.884C57.8612 55.584 58.7712 55.934 59.8912 55.934ZM80.7519 45.14V59H77.1399V48.395H74.0529C74.0529 51.237 73.8709 53.449 73.5069 55.031C73.1429 56.613 72.6319 57.712 71.9739 58.328C71.3159 58.944 70.4829 59.252 69.4749 59.252C68.9989 59.252 68.5229 59.168 68.0469 59V55.934C68.1589 55.962 68.3479 55.976 68.6139 55.976C69.0899 55.976 69.4679 55.731 69.7479 55.241C70.0419 54.737 70.2589 53.911 70.3989 52.763C70.5529 51.601 70.6299 50.033 70.6299 48.059V45.14H80.7519ZM83.5217 45.14H87.1337V50.201H92.1947V45.14H95.8067V59H92.1947V53.456H87.1337V59H83.5217V45.14ZM109.242 45.14V59H105.63V54.926H104.454L101.64 59H97.8185L101.094 54.254C100.268 53.834 99.6175 53.26 99.1415 52.532C98.6795 51.79 98.4485 50.95 98.4485 50.012C98.4485 49.06 98.6865 48.22 99.1625 47.492C99.6525 46.75 100.331 46.176 101.199 45.77C102.067 45.35 103.061 45.14 104.181 45.14H109.242ZM105.63 48.29H104.034C103.474 48.29 103.012 48.451 102.648 48.773C102.298 49.095 102.123 49.515 102.123 50.033C102.123 50.551 102.298 50.971 102.648 51.293C103.012 51.615 103.474 51.776 104.034 51.776H105.63V48.29ZM112.007 45.14H121.625V48.395H115.619V50.306H119.903V53.33H115.619V55.745H121.877V59H112.007V45.14ZM138.239 44.888V59H134.627V53.183L131.75 56.543H130.595L127.739 53.204V59H124.127V44.888H125.282L131.183 52.091L137.084 44.888H138.239ZM162.305 59L157.874 52.154V59H154.262V52.154L149.831 59H145.547L150.713 51.776L145.904 45.14H150.104L154.262 51.377V45.14H157.874V51.377L162.032 45.14H166.232L161.423 51.776L166.589 59H162.305ZM180.299 44.888V59H176.687V51.797L169.169 59.252H168.014V45.14H171.626V52.259L179.144 44.888H180.299ZM191.656 51.818C192.216 52.126 192.65 52.539 192.958 53.057C193.28 53.575 193.441 54.177 193.441 54.863C193.441 56.207 192.958 57.278 191.992 58.076C191.026 58.86 189.682 59.252 187.96 59.252C186.672 59.252 185.538 58.958 184.558 58.37C183.578 57.782 182.843 56.97 182.353 55.934L184.852 54.17C185.272 54.8 185.734 55.255 186.238 55.535C186.756 55.801 187.323 55.934 187.939 55.934C188.513 55.934 188.982 55.829 189.346 55.619C189.724 55.409 189.913 55.087 189.913 54.653C189.913 54.303 189.773 54.03 189.493 53.834C189.227 53.624 188.835 53.519 188.317 53.519H186.364V50.621H187.897C188.373 50.621 188.737 50.516 188.989 50.306C189.255 50.082 189.388 49.795 189.388 49.445C189.388 49.067 189.241 48.766 188.947 48.542C188.667 48.318 188.289 48.206 187.813 48.206C186.735 48.206 185.888 48.794 185.272 49.97L182.773 48.206C183.263 47.142 183.956 46.323 184.852 45.749C185.762 45.175 186.833 44.888 188.065 44.888C189.563 44.888 190.746 45.252 191.614 45.98C192.482 46.708 192.916 47.744 192.916 49.088C192.916 49.634 192.804 50.145 192.58 50.621C192.37 51.083 192.062 51.482 191.656 51.818ZM195.494 45.14H199.106V50.201H204.167V45.14H207.779V59H204.167V53.456H199.106V59H195.494V45.14ZM210.547 45.14H214.159V49.445H216.343C217.351 49.445 218.261 49.648 219.073 50.054C219.885 50.446 220.522 51.006 220.984 51.734C221.46 52.462 221.698 53.295 221.698 54.233C221.698 55.185 221.467 56.025 221.005 56.753C220.543 57.467 219.906 58.02 219.094 58.412C218.282 58.804 217.365 59 216.343 59H210.547V45.14ZM216.364 55.85C216.868 55.85 217.267 55.703 217.561 55.409C217.869 55.115 218.023 54.723 218.023 54.233C218.023 53.743 217.869 53.351 217.561 53.057C217.267 52.749 216.868 52.595 216.364 52.595H214.159V55.85H216.364Z" fill="#2D2F32"/>
</svg>
