<svg width="37" height="37" viewBox="0 0 37 37" fill="none" xmlns="http://www.w3.org/2000/svg">
<g clip-path="url(#clip0_7302_1934)">
<path d="M24.2536 5.48047H6.76818C3.03044 5.48047 0 8.52403 0 12.2797V29.843C0 33.5986 3.03044 36.6418 6.76836 36.6418H24.2538C27.9928 36.6418 31.022 33.5979 31.022 29.843V12.2797C31.022 8.52514 27.9921 5.48121 24.2538 5.48121" fill="#F5146E"/>
<path d="M30.9079 12.2374C34.2719 12.2374 36.9996 9.49797 36.9996 6.11861C36.9996 2.73924 34.2719 0 30.9079 0C27.5439 0 24.8164 2.73943 24.8164 6.11861C24.8164 9.49779 27.5433 12.2374 30.9079 12.2374Z" fill="#18283B"/>
<path fill-rule="evenodd" clip-rule="evenodd" d="M28.321 3.9143C28.2994 3.89966 28.2737 3.89237 28.2477 3.89349H28.2451L27.5382 3.88576C27.3963 3.88576 27.2305 3.57905 27.2305 3.43729C27.2305 3.29553 27.4117 3.10352 27.5538 3.10352L28.4026 3.11401C28.6665 3.11217 28.9942 3.22024 29.047 3.51425L29.1968 4.05753L33.8119 4.05606C33.8929 4.05606 34.0835 4.16946 34.1319 4.23427C34.1559 4.26613 34.172 4.30323 34.1791 4.34254C34.1861 4.38185 34.1838 4.42227 34.1724 4.46053L33.2455 7.2874C33.2308 7.33757 33.2012 7.38206 33.1607 7.41494C33.1202 7.44782 33.0707 7.46755 33.0188 7.47151L29.2358 7.46819C29.1725 7.47321 29.1097 7.45453 29.0594 7.41573C29.009 7.37694 28.9748 7.32079 28.9632 7.25813L28.4431 4.56418C28.4431 4.56086 28.4416 4.55755 28.4413 4.5546L28.3348 3.92866C28.3348 3.92719 28.3313 3.92166 28.3206 3.9143H28.321ZM29.3549 4.84935L29.7032 6.6922L32.6346 6.69368L33.3128 4.84935H29.3549Z" fill="white"/>
<path fill-rule="evenodd" clip-rule="evenodd" d="M29.8872 9.50526C29.7248 9.50526 29.5661 9.45691 29.4312 9.36632C29.2962 9.27573 29.191 9.14698 29.1289 8.99634C29.0668 8.8457 29.0505 8.67994 29.0822 8.52002C29.1138 8.3601 29.192 8.2132 29.3068 8.09791C29.4216 7.98261 29.5678 7.9041 29.727 7.87229C29.8862 7.84048 30.0513 7.8568 30.2012 7.9192C30.3512 7.9816 30.4794 8.08726 30.5696 8.22284C30.6598 8.35841 30.7079 8.5178 30.7079 8.68085C30.7079 8.89948 30.6214 9.10915 30.4675 9.26374C30.3136 9.41834 30.1048 9.50521 29.8872 9.50526ZM29.8872 8.82648C29.9158 8.82651 29.9439 8.818 29.9678 8.80202C29.9916 8.78604 30.0102 8.76331 30.0212 8.73671C30.0322 8.7101 30.0351 8.68082 30.0296 8.65255C30.024 8.62429 30.0102 8.59833 29.9899 8.57795C29.9697 8.55756 29.9438 8.54367 29.9157 8.53804C29.8876 8.53241 29.8584 8.53528 29.8319 8.54629C29.8054 8.55731 29.7827 8.57598 29.7668 8.59993C29.7509 8.62388 29.7424 8.65204 29.7424 8.68085C29.7424 8.71944 29.7576 8.75645 29.7848 8.78376C29.8119 8.81106 29.8487 8.82643 29.8872 8.82648Z" fill="white"/>
<path fill-rule="evenodd" clip-rule="evenodd" d="M32.3012 9.50526C32.1389 9.50526 31.9802 9.45691 31.8452 9.36632C31.7103 9.27573 31.6051 9.14698 31.5429 8.99634C31.4808 8.8457 31.4646 8.67994 31.4962 8.52002C31.5279 8.3601 31.6061 8.2132 31.7209 8.09791C31.8356 7.98261 31.9819 7.9041 32.1411 7.87229C32.3003 7.84048 32.4653 7.8568 32.6153 7.9192C32.7653 7.9816 32.8935 8.08726 32.9837 8.22284C33.0738 8.35841 33.122 8.5178 33.122 8.68085C33.122 8.8995 33.0355 9.10919 32.8816 9.26379C32.7277 9.4184 32.5189 9.50526 32.3012 9.50526ZM32.3012 8.82648C32.3299 8.82648 32.3579 8.81794 32.3818 8.80193C32.4056 8.78593 32.4242 8.76319 32.4352 8.73658C32.4461 8.70997 32.449 8.68069 32.4434 8.65244C32.4378 8.62419 32.424 8.59825 32.4037 8.57788C32.3835 8.55751 32.3576 8.54364 32.3295 8.53803C32.3014 8.53241 32.2722 8.53529 32.2457 8.54631C32.2192 8.55733 32.1966 8.576 32.1807 8.59995C32.1647 8.62389 32.1562 8.65205 32.1562 8.68085C32.1562 8.71947 32.1715 8.75651 32.1987 8.78382C32.2259 8.81113 32.2628 8.82648 32.3012 8.82648Z" fill="white"/>
<path fill-rule="evenodd" clip-rule="evenodd" d="M5.8661 13.1567L5.89726 13.5908H5.91009C6.09154 13.2512 6.34832 13.0938 6.6742 13.0938C7.08751 13.0938 7.30709 13.2635 7.45078 13.5908H7.46361C7.72021 13.1945 8.02117 13.0938 8.28418 13.0938C9.06718 13.0938 9.21784 13.6348 9.21784 14.1949V16.1143H8.21453V14.4279C8.21453 14.1571 8.22681 13.8929 7.9385 13.8929C7.6381 13.8929 7.58806 14.1323 7.58806 14.4084V16.1137H6.58568V14.4274C6.58568 14.1566 6.59814 13.8924 6.30965 13.8924C6.00924 13.8924 5.95921 14.1317 5.95921 14.4079V16.1132H4.96946V14.3397C4.71873 14.3458 4.44948 14.2015 4.46195 13.8243C4.18006 13.8059 3.99219 13.6102 3.99219 13.2453V13.1573L5.8661 13.1567Z" fill="white"/>
<path fill-rule="evenodd" clip-rule="evenodd" d="M10.5859 15.1955C10.5859 15.3718 10.7113 15.4663 10.8867 15.4663C11.1686 15.4663 11.3251 15.2836 11.3251 15.0005V14.7612C11.0621 14.9686 10.5859 14.8492 10.5859 15.1951V15.1955ZM10.4981 16.1644C10.0216 16.1644 9.55859 15.9505 9.55859 15.296C9.55859 14.1192 11.3123 14.6857 11.3123 14.0564C11.3123 13.9117 11.2247 13.8235 10.9992 13.8235C10.7793 13.8235 10.6235 13.9559 10.5731 14.2328L9.67755 14.0879C9.83407 13.3896 10.3663 13.0938 11.0368 13.0938C11.8066 13.0938 12.3148 13.3452 12.3148 14.1888V15.038C12.3148 15.1327 12.3332 15.8812 12.3515 16.1141H11.4565L11.4199 15.7872H11.4074C11.1933 16.0517 10.8738 16.1644 10.4981 16.1644Z" fill="white"/>
<path fill-rule="evenodd" clip-rule="evenodd" d="M14.6541 14.5662C14.6541 14.1004 14.5034 13.8679 14.1959 13.8679C13.8828 13.8679 13.7262 14.1007 13.7261 14.5662C13.7261 15.0506 13.8828 15.2842 14.1959 15.2842C14.5027 15.2842 14.6541 15.0513 14.6541 14.5662ZM14.1409 16.498C14.4605 16.498 14.6235 16.366 14.6235 15.9884V15.6487H14.6106C14.4605 15.8567 14.1662 16.014 13.8408 16.014C13.071 16.014 12.707 15.3972 12.707 14.5596C12.707 13.7353 13.1207 13.0938 13.885 13.0938C14.223 13.0938 14.4988 13.3012 14.6431 13.4839H14.6555L14.6739 13.1565H15.6259V15.6737C15.6259 16.7811 15.1127 17.2277 14.1288 17.2277C13.5901 17.2277 13.0698 17.039 12.8194 16.41L13.6649 16.1959C13.7527 16.4035 13.8903 16.498 14.1414 16.498" fill="white"/>
<path fill-rule="evenodd" clip-rule="evenodd" d="M18.0106 13.0941C18.7058 13.0941 18.8688 13.6227 18.8688 14.2394V16.1145H17.8664V14.434C17.8664 14.1632 17.8539 13.8929 17.5156 13.8929C17.1963 13.8929 17.1276 14.1632 17.1276 14.4399V16.1139H16.125V13.1569H17.0781L17.103 13.5724H17.1155C17.3598 13.2449 17.6417 13.0938 18.0114 13.0938" fill="white"/>
<path fill-rule="evenodd" clip-rule="evenodd" d="M20.217 16.1766C19.5342 16.1766 19.3711 15.6481 19.3711 15.0313V13.1562H20.3737V14.8362C20.3737 15.1068 20.3861 15.3772 20.712 15.3772C21.0188 15.3772 21.0877 15.1068 21.0877 14.8301V13.1562H22.0901V16.1138H21.137L21.1123 15.6983H21.0995C20.8612 16.0257 20.5795 16.177 20.2162 16.177" fill="white"/>
<path fill-rule="evenodd" clip-rule="evenodd" d="M23.4918 13.1567L23.523 13.5908H23.5354C23.7172 13.2512 23.9802 13.0938 24.3052 13.0938C24.7189 13.0938 24.9379 13.2635 25.0822 13.5908H25.0946C25.3512 13.1945 25.652 13.0938 25.9152 13.0938C26.6986 13.0938 26.8488 13.6348 26.8488 14.1949V16.1143H25.8463V14.4279C25.8463 14.1571 25.8591 13.8929 25.5713 13.8929C25.2706 13.8929 25.2205 14.1323 25.2205 14.4084V16.1137H24.218V14.4274C24.218 14.1566 24.2308 13.8924 23.943 13.8924C23.6423 13.8924 23.5922 14.1317 23.5922 14.4079V16.1132H22.5898V13.1567H23.4918Z" fill="white"/>
<path d="M14.4547 23.1259V28.8054H12.4764L12.373 27.8113C11.6202 28.627 10.4096 29.0263 9.22836 29.0263C5.89257 29.0263 3.97266 26.9644 3.97266 23.8807C3.97266 20.4402 5.98055 18.2012 9.42045 18.2012C11.9153 18.2012 13.9232 19.4319 14.3807 21.8937L11.9007 22.4127C11.7086 21.2871 10.7944 20.4862 9.41971 20.4862C7.81047 20.4862 6.77692 21.8061 6.77692 23.6301C6.77692 25.4689 7.79562 26.7295 9.59677 26.7295C10.6155 26.7295 11.6637 26.2843 11.8851 25.2014H9.93713V23.1259H14.4547Z" fill="white"/>
<path d="M21.1289 18.2021C24.5832 18.2021 26.665 20.397 26.665 23.6742C26.665 26.8919 24.5832 29.0273 21.1582 29.0273C17.6298 29.0273 15.6367 26.8475 15.6367 23.5851C15.6367 20.397 17.7331 18.2021 21.1289 18.2021ZM21.1435 26.6546C22.9003 26.6546 23.86 25.3497 23.86 23.5851C23.86 21.7908 22.9003 20.5748 21.1435 20.5748C19.3572 20.5748 18.4417 21.8205 18.4417 23.6296C18.4417 25.4243 19.4309 26.6546 21.1435 26.6546Z" fill="white"/>
</g>
<defs>
<clipPath id="clip0_7302_1934">
<rect width="37" height="36.6408" fill="white"/>
</clipPath>
</defs>
</svg>
