<svg width="94" height="63" viewBox="0 0 94 63" fill="none" xmlns="http://www.w3.org/2000/svg">
<g filter="url(#filter0_d_2_5091)">
<path d="M80.5847 29.1471C86.0081 45.7677 75.3682 64.1003 56.8199 70.0942C38.2716 76.088 18.8387 67.4734 13.4153 50.8529C7.99192 34.2323 18.6318 15.8997 37.1801 9.90585C55.7284 3.91198 75.1613 12.5266 80.5847 29.1471Z" fill="#FE7B21"/>
<path d="M43.3873 34.6922C43.3873 36.0044 42.3183 37.0681 40.9998 37.0681C39.6812 37.0681 38.6122 36.0044 38.6122 34.6922C38.6122 33.38 39.6812 32.3162 40.9998 32.3162C42.3183 32.3162 43.3873 33.38 43.3873 34.6922Z" fill="#1D1B1B"/>
<path d="M60.8957 26.7724C60.8957 28.0846 59.8268 29.1483 58.5082 29.1483C57.1896 29.1483 56.1207 28.0846 56.1207 26.7724C56.1207 25.4602 57.1896 24.3965 58.5082 24.3965C59.8268 24.3965 60.8957 25.4602 60.8957 26.7724Z" fill="#1D1B1B"/>
<path d="M62.4874 41.028C62.4874 44.9646 59.2806 48.1558 55.3248 48.1558C51.3691 48.1558 48.1623 44.9646 48.1623 41.028C48.1623 37.0914 51.3691 33.9002 55.3248 33.9002C59.2806 33.9002 62.4874 37.0914 62.4874 41.028Z" fill="#1D1B1B"/>
<path d="M34.6331 18.8526C37.8164 16.4767 37.0206 15.6847 37.8164 13.3088C41.7956 14.1008 43.9178 12.5168 44.9789 11.7248C46.5706 14.1008 48.9581 13.8368 49.754 14.1008C49.754 16.4767 49.754 16.4767 52.1415 18.8526C48.1623 20.4366 47.3665 21.2286 45.7748 23.6045C41.7956 22.0205 39.6734 22.5485 37.8164 23.6045C37.8164 20.4366 35.9594 19.6446 34.6331 18.8526Z" fill="#3ACE76"/>
</g>
<defs>
<filter id="filter0_d_2_5091" x="0" y="0" width="94" height="88" filterUnits="userSpaceOnUse" color-interpolation-filters="sRGB">
<feFlood flood-opacity="0" result="BackgroundImageFix"/>
<feColorMatrix in="SourceAlpha" type="matrix" values="0 0 0 0 0 0 0 0 0 0 0 0 0 0 0 0 0 0 127 0" result="hardAlpha"/>
<feOffset dy="4"/>
<feGaussianBlur stdDeviation="6"/>
<feComposite in2="hardAlpha" operator="out"/>
<feColorMatrix type="matrix" values="0 0 0 0 0 0 0 0 0 0 0 0 0 0 0 0 0 0 0.1 0"/>
<feBlend mode="normal" in2="BackgroundImageFix" result="effect1_dropShadow_2_5091"/>
<feBlend mode="normal" in="SourceGraphic" in2="effect1_dropShadow_2_5091" result="shape"/>
</filter>
</defs>
</svg>
