<svg width="11" height="26" viewBox="0 0 11 26" fill="none" xmlns="http://www.w3.org/2000/svg">
<path d="M6.57901 3.59536C6.43588 3.0936 6.3026 2.61918 6.55857 1.89843C6.81453 1.17768 7.52109 0.740039 8.42189 0.75826C9.3227 0.776482 9.87552 1.42401 9.95845 1.84377C10.0414 2.26353 10.0497 2.79262 9.24091 2.70016C8.43212 2.60771 8.44196 1.68788 8.98494 1.43211C8.98494 1.43211 8.20682 1.18578 7.6131 1.75131C7.01938 2.31684 7.38591 3.09529 7.49383 3.24747C7.60931 3.40809 7.69489 3.77656 9.11785 3.56668C9.11785 3.56668 8.27839 5.79371 10.0701 6.45844C10.0701 6.45844 9.89597 5.30916 10.623 3.99521C11.35 2.68127 10.9301 1.54109 10.1724 0.683689C9.41471 -0.173718 6.96448 -0.277646 6.16969 0.67559C5.49797 1.48238 5.47185 1.92408 5.4798 2.03981C5.44193 1.78033 5.10721 0.0236782 2.82206 0.0786791C0.355172 0.137729 0 1.52456 0 2.32899C0 3.13342 0.375619 4.08058 0.580089 4.46356C0.784559 4.84655 1.06021 6.11325 0.897396 6.43246C0.897396 6.43246 2.53543 6.15881 1.82925 3.58625C1.82925 3.58625 2.79139 3.83257 3.30333 3.42192C3.81526 3.01127 3.78648 2.19976 3.45668 1.80733C3.12688 1.4149 2.44342 1.25091 1.96215 1.46079C1.96215 1.46079 2.53543 1.75266 2.29991 2.26353C2.06439 2.7744 1.57328 2.8655 1.21508 2.68295C0.874299 2.50985 0.883765 1.64705 1.3548 1.26575C1.71149 0.979276 1.61569 0.839243 2.7327 0.703597C3.87168 0.564914 4.39876 1.71588 4.39876 1.84377C4.39876 1.97165 4.76718 2.99339 4.31659 3.7688C3.866 4.54421 1.72664 6.54685 1.72664 6.54685C1.72664 6.54685 -0.302919 8.45737 0.244228 10.6446C0.774336 12.7704 2.12611 13.0177 3.25221 13.0177C4.37831 13.0177 4.93114 12.2892 5.48396 11.0667C5.48396 11.0667 6.04701 12.709 7.20378 12.9097C8.36055 13.1105 9.8653 12.9735 10.551 11.1673C11.2368 9.361 10.286 7.73696 9.46583 6.86133C8.64567 5.98571 6.72252 4.09712 6.57901 3.59536ZM7.89974 12.1374C6.49382 12.1131 6.44611 10.8356 6.41884 10.4647C6.39158 10.0939 7.22423 9.34582 7.74411 9.99638C8.264 10.6469 7.2727 11.0684 7.2727 11.0684C8.25718 11.3262 8.54457 10.927 8.82894 10.651C9.11331 10.375 9.17919 9.55165 8.68808 9.00434C8.19698 8.45703 7.21401 8.69425 7.21401 8.69425C7.81795 6.64167 5.98529 5.91181 5.98529 5.91181C5.98529 5.91181 6.22081 6.73277 5.98529 7.37153C5.74977 8.01028 5.48396 9.15045 5.48396 9.15045C5.48396 9.15045 5.19733 7.85506 4.98225 7.42619C4.76718 6.99732 4.98225 5.94825 4.98225 5.94825C2.78117 7.18898 3.78118 8.72461 3.78118 8.72461C2.62782 8.49044 2.26659 9.02256 2.26659 9.02256C2.26659 9.02256 1.51952 9.84994 2.16776 10.6648C2.81601 11.4797 3.69826 11.0502 3.69826 11.0502C3.44494 10.9203 3.20185 10.5552 3.20185 10.5552C3.06856 10.4458 2.92544 9.8162 3.7134 9.8162C4.50137 9.8162 4.5222 10.3088 4.56309 10.6557C4.60398 11.0026 4.22534 12.2079 2.7717 12.1337C1.31807 12.0594 1.27642 10.93 1.16359 9.84454C1.05075 8.75903 2.27946 6.94265 3.80504 5.63883C5.33061 4.335 5.48396 2.89283 5.48396 2.89283C5.39157 3.37502 6.39499 5.10063 7.96108 6.54685C9.52717 7.99307 9.73542 8.77388 9.81077 9.91C9.88613 11.0461 9.30566 12.1617 7.89974 12.1374Z" fill="#FFD700"/>
<path d="M4.42056 22.4064C4.56368 22.9078 4.69697 23.3822 4.441 24.103C4.18504 24.8237 3.47848 25.2617 2.57768 25.2435C1.67687 25.2253 1.12404 24.5774 1.04226 24.1577C0.960469 23.7379 0.950245 23.2091 1.75866 23.3002C2.56707 23.3913 2.55761 24.3125 2.01463 24.5683C2.01463 24.5683 2.79275 24.8146 3.38647 24.2491C3.98019 23.6836 3.61366 22.9048 3.50612 22.7529C3.39025 22.592 3.30468 22.2238 1.88172 22.4337C1.88172 22.4337 2.72118 20.2067 0.92942 19.5416C0.92942 19.5416 1.1036 20.6912 0.376972 22.0049C-0.349654 23.3185 0.0695097 24.458 0.827185 25.3154C1.58486 26.1728 4.03547 26.2784 4.82987 25.3245C5.5016 24.5184 5.52772 24.078 5.51977 23.9609C5.55764 24.2204 5.89236 25.9771 8.1775 25.9221C10.6444 25.8627 10.9996 24.4762 10.9996 23.6731C10.9996 22.87 10.6239 21.9218 10.4195 21.5385C10.215 21.1552 9.93822 19.8875 10.1022 19.5679C10.1022 19.5679 8.46414 19.8416 9.17032 22.4145C9.17032 22.4145 8.20817 22.1682 7.69624 22.5785C7.18431 22.9888 7.21536 23.801 7.54478 24.1934C7.87421 24.5858 8.55804 24.7498 9.03931 24.54C9.03931 24.54 8.46603 24.2481 8.70155 23.7372C8.93707 23.2263 9.42818 23.1349 9.78449 23.3175C10.1253 23.4909 10.1158 24.3537 9.64476 24.7347C9.28846 25.0228 9.38388 25.1612 8.26686 25.2971C7.12789 25.4358 6.60081 24.2849 6.60081 24.1566C6.60081 24.0284 6.23239 23.0074 6.68298 22.2333C7.13357 21.4592 9.27293 19.4539 9.27293 19.4539C9.27293 19.4539 11.3021 17.5447 10.7557 15.3575C10.2256 13.2317 8.87346 12.9844 7.74736 12.9844C6.62126 12.9844 6.06843 13.7125 5.51599 14.9351C5.51599 14.9351 4.95294 13.2931 3.79617 13.0924C2.6394 12.8916 1.13578 13.0259 0.448537 14.8335C-0.23871 16.6411 0.71359 18.2634 1.53374 19.1394C2.35389 20.0154 4.27856 21.9036 4.42056 22.4064ZM3.09983 13.8634C4.50575 13.8873 4.55346 15.1648 4.58072 15.536C4.60799 15.9072 3.77534 16.6549 3.25546 16.004C2.73557 15.3531 3.72536 14.9313 3.72536 14.9313C2.74277 14.6739 2.45348 15.0727 2.16949 15.3487C1.88551 15.6248 1.81886 16.4481 2.30997 16.9954C2.80108 17.5427 3.78632 17.3055 3.78632 17.3055C3.18048 19.3584 5.01503 20.0879 5.01503 20.0879C5.01503 20.0879 4.77951 19.267 5.01503 18.6285C5.25055 17.9901 5.51674 16.8496 5.51674 16.8496C5.51674 16.8496 5.80338 18.145 6.01807 18.5735C6.23277 19.0021 6.01807 20.0515 6.01807 20.0515C8.21915 18.8108 7.21952 17.2751 7.21952 17.2751C8.37289 17.5093 8.73412 16.9772 8.73412 16.9772C8.73412 16.9772 9.48119 16.1501 8.83294 15.3352C8.1847 14.5204 7.30207 14.9492 7.30207 14.9492C7.55538 15.0795 7.79886 15.4442 7.79886 15.4442C7.93176 15.5539 8.07527 16.1832 7.28692 16.1832C6.49858 16.1832 6.47813 15.6916 6.43686 15.3444C6.39559 14.9971 6.77461 13.7922 8.22824 13.8664C9.68187 13.9406 9.72277 15.0707 9.8356 16.1562C9.94844 17.2417 8.72011 19.0571 7.19415 20.3616C5.6682 21.6661 5.51561 23.1076 5.51561 23.1076C5.60762 22.624 4.6042 20.9001 3.03811 19.4525C1.47202 18.005 1.26377 17.2255 1.18842 16.0894C1.11306 14.9533 1.69391 13.8391 3.09983 13.8634Z" fill="#FFD700"/>
</svg>
