<svg width="32" height="31" viewBox="0 0 32 31" fill="none" xmlns="http://www.w3.org/2000/svg">
<path fill-rule="evenodd" clip-rule="evenodd" d="M15.8497 0C7.34061 0 0.442627 6.89798 0.442627 15.4071C0.442627 23.9161 7.34061 30.8141 15.8497 30.8141C24.3588 30.8141 31.2567 23.9161 31.2567 15.4071C31.2567 6.89798 24.3588 0 15.8497 0ZM18.8524 7.70353C18.8524 7.93247 18.8737 8.15794 18.9131 8.37615C19.1026 9.38489 19.6996 10.2505 20.5288 10.7906C21.1078 11.1698 21.7941 11.3881 22.5339 11.3881L22.5338 11.9783V14.0352C21.1613 14.0352 19.8889 13.5952 18.8523 12.8511V18.2348C18.8523 20.9213 16.6649 23.1106 13.9807 23.1106C12.9442 23.1106 11.9791 22.7814 11.1892 22.2269C9.93113 21.3434 9.1091 19.8839 9.1091 18.2348C9.1091 15.5448 11.2929 13.3591 13.9771 13.3626C14.2023 13.3626 14.4203 13.3805 14.6348 13.4092V14.0352L14.627 14.0389L14.6348 14.0387V16.1135C14.4275 16.0491 14.2059 16.0098 13.9771 16.0098C12.7512 16.0098 11.754 17.0079 11.754 18.2348C11.754 19.0898 12.2401 19.8303 12.9478 20.2059C12.9544 20.2149 12.9611 20.2239 12.9678 20.2329L12.9797 20.2485C12.9715 20.2328 12.9621 20.2174 12.9514 20.2023C13.2623 20.3669 13.6126 20.4599 13.9843 20.4599C15.1816 20.4599 16.161 19.5048 16.2039 18.3171L16.2074 7.70353H18.8524Z" fill="#F50F64"/>
</svg>
