<svg width="113" height="46" viewBox="0 0 113 46" fill="none" xmlns="http://www.w3.org/2000/svg">
<g clip-path="url(#clip0_2144_35)">
<path d="M30.2855 14.5846V0.0236212C25.5701 0.0236212 14.0587 -0.111673 12.3135 0.243474C4.41997 1.67759 1.21489 7.87744 0.600727 10.7964C-0.114124 12.9273 -0.778632 18.5183 2.29556 23.8354C5.36975 29.1524 11.4745 30.6271 14.1426 30.7015H30.2855V16.1574H21.7543C21.375 16.1574 21.0528 16.4246 20.9119 16.7764C20.4454 17.9366 19.2674 19.5398 17.0121 19.7427C12.2968 19.5736 12.1457 15.9714 12.3135 14.5846C12.4813 13.1979 13.7902 10.8133 17.0121 10.9994C19.1499 11.1211 20.3581 12.7277 20.875 13.9183C21.0394 14.3005 21.3952 14.5846 21.808 14.5846H30.2855Z" fill="#F50F64"/>
<path d="M44.4147 0.0236816H31.9468V30.7016H51.4793V20.3178H44.4147V0.0236816Z" fill="#F50F64"/>
<path d="M53.1909 30.7016V0.0236816H65.3232C65.2897 6.31486 65.2427 19.0968 65.3232 19.895C65.4239 20.8928 65.9945 22.2457 67.9242 22.195C68.8471 22.1713 69.4512 21.62 69.8103 21.0213C70.2265 20.3313 70.2399 19.4891 70.2399 18.6807V0.0236816H82.3051V30.7016H53.1909Z" fill="#F50F64"/>
<path fill-rule="evenodd" clip-rule="evenodd" d="M83.9496 30.705V0.0236816C89.3865 0.0304464 100.639 0.0405934 102.156 0.0405934C103.647 0.135299 104.915 0.588535 105.362 0.801624C106.469 1.21765 108.778 2.73295 109.154 5.45236C109.53 8.17178 108.224 10.1809 107.526 10.8472C109.349 11.6421 112.997 14.5644 112.997 19.895C112.943 28.1209 106.788 30.5258 103.717 30.7017H83.9496V30.705ZM100.21 10.6308V10.7322C100.21 12.349 98.9111 13.658 97.3069 13.658C95.7027 13.658 94.4038 12.349 94.4038 10.7322V10.6308C94.4038 9.01398 95.7027 7.70501 97.3069 7.70501C98.9111 7.70501 100.21 9.01398 100.21 10.6308ZM94.4038 20.3618C94.4038 21.9718 95.7094 23.2808 97.3069 23.2808C98.9044 23.2808 100.21 21.9752 100.21 20.3618C100.21 18.7484 98.9044 17.4428 97.3069 17.4428C95.7094 17.4462 94.4038 18.7518 94.4038 20.3618Z" fill="#F50F64"/>
<path d="M34.5813 36.5328L34.6517 37.5407H34.682C35.1015 36.7527 35.6921 36.384 36.4406 36.384C37.3903 36.384 37.9005 36.7797 38.2294 37.5407H38.2562C38.8469 36.6174 39.5382 36.384 40.1457 36.384C41.9446 36.384 42.2936 37.6422 42.2936 38.941V43.4024H39.988V39.4856C39.988 38.8565 40.0148 38.2409 39.3536 38.2409C38.6623 38.2409 38.5448 38.7956 38.5448 39.4382V43.4024H36.2358V39.4856C36.2358 38.8565 36.266 38.2409 35.6015 38.2409C34.9102 38.2409 34.7927 38.7956 34.7927 39.4382V43.4024H32.5206V39.2793C31.9434 39.2928 31.3259 38.9579 31.3527 38.0819C30.705 38.0379 30.272 37.5847 30.272 36.7357V36.5294H34.5813V36.5328Z" fill="#F50F64"/>
<path d="M45.2503 43.5207C44.1562 43.5207 43.089 43.0269 43.089 41.5048C43.089 38.7719 47.1264 40.0876 47.1264 38.6265C47.1264 38.2916 46.925 38.0853 46.4048 38.0853C45.888 38.0853 45.5389 38.3931 45.4248 39.0357L43.3642 38.7009C43.7199 37.0807 44.9483 36.3907 46.4887 36.3907C48.2674 36.3907 49.4354 36.9759 49.4354 38.9343V40.9062C49.4354 41.126 49.479 42.8646 49.5226 43.4057H47.4553L47.368 42.6447H47.3378C46.8545 43.2569 46.1128 43.5207 45.2503 43.5207ZM45.4517 41.2681C45.4517 41.6773 45.7437 41.8972 46.143 41.8972C46.7908 41.8972 47.1499 41.4744 47.1499 40.8115V40.2601C46.5458 40.7438 45.4517 40.4665 45.4517 41.2681Z" fill="#F50F64"/>
<path d="M53.6238 44.2953C54.3588 44.2953 54.7347 43.9875 54.7347 43.1115V42.3234H54.7078C54.3622 42.8071 53.6842 43.1724 52.9358 43.1724C51.1638 43.1724 50.3248 41.7382 50.3248 39.7934C50.3248 37.8756 51.2779 36.384 53.0365 36.384C53.8151 36.384 54.4494 36.8676 54.7817 37.2904H54.8085L54.8521 36.5294H57.0437V42.3809C57.0437 44.9549 55.8623 45.9932 53.597 45.9932C52.3552 45.9932 51.1604 45.5535 50.5832 44.0924L52.5297 43.5985C52.7311 44.0822 53.0466 44.3021 53.6238 44.3021V44.2953ZM54.8018 39.8103C54.8018 38.7246 54.4561 38.1868 53.7513 38.1868C53.0298 38.1868 52.6707 38.7279 52.6707 39.8103C52.6707 40.9366 53.0331 41.4778 53.7513 41.4778C54.4561 41.4778 54.8018 40.9366 54.8018 39.8103Z" fill="#F50F64"/>
<path d="M62.5343 36.3874C64.1351 36.3874 64.5144 37.6152 64.5144 39.0526V43.4091H62.2054V39.5059C62.2054 38.8768 62.1752 38.2477 61.3966 38.2477C60.6616 38.2477 60.5039 38.8768 60.5039 39.5194V43.4091H58.1949V36.5362H60.3864L60.4434 37.5001H60.4703C61.0341 36.7357 61.6818 36.3874 62.5343 36.3874Z" fill="#F50F64"/>
<path d="M67.6053 43.5512C66.0346 43.5512 65.6588 42.3234 65.6588 40.8859V36.5328H67.9644V40.436C67.9644 41.0651 67.9946 41.6943 68.743 41.6943C69.4512 41.6943 69.6089 41.0651 69.6089 40.4225V36.5328H71.9146V43.4057H69.723L69.666 42.4418H69.6358C69.0887 43.1994 68.441 43.5512 67.6053 43.5512Z" fill="#F50F64"/>
<path d="M75.1465 36.5328L75.217 37.5407H75.2472C75.6634 36.7527 76.2809 36.384 77.0326 36.384C77.9992 36.384 78.5026 36.7797 78.8349 37.5407H78.8617C79.4524 36.6174 80.1605 36.384 80.7646 36.384C82.5803 36.384 82.926 37.6422 82.926 38.941V43.4024H80.6203V39.4856C80.6203 38.8565 80.6472 38.2409 79.9726 38.2409C79.2678 38.2409 79.1503 38.7956 79.1503 39.4382V43.4024H76.8447V39.4856C76.8447 38.8565 76.8716 38.2409 76.197 38.2409C75.4922 38.2409 75.3747 38.7956 75.3747 39.4382V43.4024H73.0691V36.5294H75.1465V36.5328Z" fill="#F50F64"/>
</g>
<defs>
<clipPath id="clip0_2144_35">
<rect width="113" height="46" fill="white"/>
</clipPath>
</defs>
</svg>
