<svg width="143" height="113" viewBox="0 0 143 113" fill="none" xmlns="http://www.w3.org/2000/svg">
<g filter="url(#filter0_d_2_5085)">
<path d="M14.6144 22.0815C5.0103 51.572 22.6931 83.725 54.1102 93.8973C85.5272 104.07 118.781 88.409 128.386 58.9185C137.99 29.428 120.307 -2.72504 88.8898 -12.8973C57.4728 -23.0695 24.2186 -7.40901 14.6144 22.0815Z" fill="#FF162C"/>
<path d="M80.0013 40.9119C80.0013 43.386 82.0127 45.3916 84.494 45.3916C86.9753 45.3916 88.9867 43.386 88.9867 40.9119C88.9867 38.4379 86.9753 36.4323 84.494 36.4323C82.0127 36.4323 80.0013 38.4379 80.0013 40.9119Z" fill="#1D1B1B"/>
<path d="M59.784 29.7127C59.784 32.1868 61.7955 34.1924 64.2767 34.1924C66.758 34.1924 68.7695 32.1868 68.7695 29.7127C68.7695 27.2387 66.758 25.233 64.2767 25.233C61.7955 25.233 59.784 27.2387 59.784 29.7127Z" fill="#1D1B1B"/>
<path d="M72.8212 15.1539C73.7198 13.362 73.1956 10.6742 72.8212 9.55428L64.959 9.55412L69.4517 5.07443C70.8725 3.65779 71.6981 0.221382 71.6981 -1.6451C73.4952 -0.749165 76.9396 0.221436 78.4372 0.594742C80.2342 -2.09307 81.4323 -3.51164 81.8067 -3.88495C81.8067 -0.301195 82.5555 1.34146 82.9299 1.71482C84.8018 1.71477 87.4226 0.594742 90.7922 0.594742C90.7922 1.71477 91.4661 4.40276 94.1617 6.19451C89.669 6.19451 88.5458 8.43436 88.5458 9.55428L90.7922 16.2737L84.0531 12.914C84.9516 16.4978 84.4275 18.887 84.0531 19.6336C82.5555 17.767 79.3357 14.034 78.4372 14.034C77.5386 14.034 74.3188 14.7806 72.8212 15.1539Z" fill="#3ACF75"/>
<path d="M78.8781 53.2311L57.5376 43.1518C55.6657 46.8849 53.9435 55.2469 62.0304 58.8307C70.1173 62.4145 76.6317 56.5909 78.8781 53.2311Z" fill="#1D1B1B"/>
</g>
<defs>
<filter id="filter0_d_2_5085" x="0" y="-24" width="143" height="137" filterUnits="userSpaceOnUse" color-interpolation-filters="sRGB">
<feFlood flood-opacity="0" result="BackgroundImageFix"/>
<feColorMatrix in="SourceAlpha" type="matrix" values="0 0 0 0 0 0 0 0 0 0 0 0 0 0 0 0 0 0 127 0" result="hardAlpha"/>
<feOffset dy="4"/>
<feGaussianBlur stdDeviation="6"/>
<feComposite in2="hardAlpha" operator="out"/>
<feColorMatrix type="matrix" values="0 0 0 0 0 0 0 0 0 0 0 0 0 0 0 0 0 0 0.15 0"/>
<feBlend mode="normal" in2="BackgroundImageFix" result="effect1_dropShadow_2_5085"/>
<feBlend mode="normal" in="SourceGraphic" in2="effect1_dropShadow_2_5085" result="shape"/>
</filter>
</defs>
</svg>
