<svg width="31" height="31" viewBox="0 0 31 31" fill="none" xmlns="http://www.w3.org/2000/svg">
<path fill-rule="evenodd" clip-rule="evenodd" d="M30.8852 15.4071C30.8852 6.89798 23.9872 0 15.4781 0C6.96902 0 0.0710449 6.89798 0.0710449 15.4071C0.0710449 23.9161 6.96902 30.8141 15.4781 30.8141C23.9872 30.8141 30.8852 23.9161 30.8852 15.4071ZM8.85307 8.78202C7.77457 9.87079 7.77457 11.6118 7.77457 15.0989V15.7152C7.77457 19.1972 7.77457 20.9382 8.85307 22.0321C9.94183 23.1106 11.6828 23.1106 15.17 23.1106H15.7862C19.2682 23.1106 21.0092 23.1106 22.1031 22.0321C23.1816 20.9433 23.1816 19.2023 23.1816 15.7152V15.0989C23.1816 11.6169 23.1816 9.87593 22.1031 8.78202C21.0144 7.70353 19.2734 7.70353 15.7862 7.70353H15.17C11.688 7.70353 9.94697 7.70353 8.85307 8.78202Z" fill="#F50F64"/>
<path d="M15.9711 18.8018C12.4583 18.8018 10.4554 16.3983 10.3732 12.3924H12.1399C12.1964 15.33 13.4906 16.5729 14.5177 16.8297V12.3924H16.1766V14.9243C17.1883 14.8165 18.2565 13.6609 18.616 12.3873H20.2697C20.1349 13.0466 19.8655 13.671 19.4785 14.2215C19.0914 14.772 18.595 15.2368 18.0203 15.5868C18.6617 15.9061 19.2281 16.3577 19.6823 16.9118C20.1364 17.466 20.4679 18.1101 20.6549 18.8018H18.8317C18.4414 17.5846 17.4656 16.6396 16.1766 16.5112V18.8018H15.9711Z" fill="#F50F64"/>
</svg>
